<?xml version="1.0" encoding="UTF-8"?>
<svg xmlns="http://www.w3.org/2000/svg" version="1.1" viewBox="0 0 50 50">
  <!-- Generator: Adobe Illustrator 29.8.6, SVG Export Plug-In . SVG Version: 2.1.1 Build 1)  -->
  <defs>
    <style>
      .st0, .st1, .st2, .st3, .st4, .st5, .st6 {
        stroke: #001910;
      }

      .st0, .st1, .st3, .st4, .st5, .st6 {
        fill: none;
      }

      .st0, .st1, .st4, .st6 {
        stroke-linecap: round;
      }

      .st0, .st2, .st3, .st4, .st5 {
        stroke-miterlimit: 10;
      }

      .st1, .st6 {
        stroke-linejoin: round;
      }

      .st2, .st7 {
        fill: #001910;
      }

      .st8 {
        display: none;
      }

      .st4, .st5, .st6 {
        stroke-width: 2px;
      }
    </style>
  </defs>
  <g id="Layer_1" class="st8">
    <g>
      <circle class="st5" cx="24.7" cy="24.55" r="22"/>
      <path class="st7" d="M37.09,24.03l-9.2-5.31c-.4-.23-.9.06-.9.52v3.79c0,.33-.27.6-.6.6h-13.46c-.51,0-.92.41-.92.92s.41.92.92.92h13.46c.33,0,.6.27.6.6v3.79c0,.46.5.75.9.52l9.2-5.31c.4-.23.4-.81,0-1.04Z"/>
    </g>
  </g>
  <g id="Layer_2" class="st8">
    <path class="st7" d="M25,3C12.85,3,3,12.85,3,25s9.85,22,22,22,22-9.85,22-22S37.15,3,25,3ZM37.39,25.52l-9.2,5.31c-.4.23-.9-.06-.9-.52v-3.79c0-.33-.27-.6-.6-.6h-13.46c-.51,0-.92-.41-.92-.92s.41-.92.92-.92h13.46c.33,0,.6-.27.6-.6v-3.79c0-.46.5-.75.9-.52l9.2,5.31c.4.23.4.81,0,1.04Z"/>
  </g>
  <g id="Layer_3" class="st8">
    <g>
      <circle class="st2" cx="25" cy="9.52" r="6.52"/>
      <path class="st2" d="M37.22,34.41c0-8.35-5.47-15.11-12.22-15.11s-12.22,6.77-12.22,15.11v11.18c0,.78.63,1.41,1.41,1.41h21.62c.78,0,1.41-.63,1.41-1.41v-11.18Z"/>
      <circle class="st2" cx="25" cy="9.52" r="6.52"/>
      <path class="st2" d="M37.22,34.41c0-8.35-5.47-15.11-12.22-15.11s-12.22,6.77-12.22,15.11v11.18c0,.78.63,1.41,1.41,1.41h21.62c.78,0,1.41-.63,1.41-1.41v-11.18Z"/>
    </g>
  </g>
  <g id="Layer_4" class="st8">
    <g>
      <circle class="st5" cx="25" cy="9.52" r="6.52"/>
      <path class="st5" d="M37.22,34.41c0-8.35-5.47-15.11-12.22-15.11s-12.22,6.77-12.22,15.11v11.18c0,.78.63,1.41,1.41,1.41h21.62c.78,0,1.41-.63,1.41-1.41v-11.18Z"/>
    </g>
  </g>
  <g id="Layer_5" class="st8">
    <g>
      <rect class="st5" x="9.03" y="3" width="31.95" height="44" rx="2" ry="2"/>
      <line class="st4" x1="14.15" y1="13.85" x2="35.85" y2="13.85"/>
      <line class="st4" x1="14.15" y1="24.7" x2="35.85" y2="24.7"/>
      <line class="st4" x1="14.15" y1="35.55" x2="25" y2="35.55"/>
    </g>
  </g>
  <g id="Layer_6" class="st8">
    <g>
      <path class="st7" d="M38.97,3H11.03c-1.1,0-2,.9-2,2v40c0,1.1.9,2,2,2h27.95c1.1,0,2-.9,2-2V5c0-1.1-.9-2-2-2ZM25,36.55h-10.85c-.55,0-1-.45-1-1s.45-1,1-1h10.85c.55,0,1,.45,1,1s-.45,1-1,1ZM35.85,25.7H14.15c-.55,0-1-.45-1-1s.45-1,1-1h21.7c.55,0,1,.45,1,1s-.45,1-1,1ZM35.85,14.85H14.15c-.55,0-1-.45-1-1s.45-1,1-1h21.7c.55,0,1,.45,1,1s-.45,1-1,1Z"/>
      <rect class="st5" x="9.03" y="3" width="31.95" height="44" rx="2" ry="2"/>
    </g>
  </g>
  <g id="Layer_7">
    <g>
      <circle class="st6" cx="25" cy="25" r="6.19"/>
      <line class="st6" x1="25" y1="3" x2="25" y2="11.94"/>
      <line class="st6" x1="9.44" y1="9.44" x2="15.76" y2="15.76"/>
      <line class="st6" x1="3" y1="25" x2="11.94" y2="25"/>
      <line class="st6" x1="9.44" y1="40.56" x2="15.76" y2="34.24"/>
      <line class="st6" x1="25" y1="47" x2="25" y2="38.06"/>
      <line class="st6" x1="40.56" y1="40.56" x2="34.24" y2="34.24"/>
      <line class="st6" x1="47" y1="25" x2="38.06" y2="25"/>
      <line class="st6" x1="40.56" y1="9.44" x2="34.24" y2="15.76"/>
    </g>
  </g>
  <g id="Layer_8" class="st8">
    <g>
      <circle class="st7" cx="25.2" cy="24.95" r="6.19"/>
      <line class="st6" x1="25" y1="3" x2="25" y2="11.94"/>
      <line class="st6" x1="9.44" y1="9.44" x2="15.76" y2="15.76"/>
      <line class="st6" x1="3" y1="25" x2="11.94" y2="25"/>
      <line class="st6" x1="9.44" y1="40.56" x2="15.76" y2="34.24"/>
      <line class="st6" x1="25" y1="47" x2="25" y2="38.06"/>
      <line class="st6" x1="40.56" y1="40.56" x2="34.24" y2="34.24"/>
      <line class="st6" x1="47" y1="25" x2="38.06" y2="25"/>
      <line class="st6" x1="40.56" y1="9.44" x2="34.24" y2="15.76"/>
      <circle class="st5" cx="25.2" cy="24.95" r="6.19"/>
    </g>
  </g>
  <g id="Layer_9" class="st8">
    <path class="st1" d="M31,41.34v-5.33c0-.74-.49-1.33-1.09-1.33h-9.82c-.6,0-1.09.6-1.09,1.33v5.33c0,.74-.49,1.33-1.09,1.33h-9.82c-.6,0-1.09-.6-1.09-1.33v-19.28c0-.45.19-.87.5-1.12L24.41,7.55c.36-.29.83-.29,1.19,0l16.91,13.4c.31.25.5.67.5,1.12v19.28c0,.74-.49,1.33-1.09,1.33h-9.82c-.6,0-1.09-.6-1.09-1.33Z"/>
  </g>
  <g id="Layer_10" class="st8">
    <g>
      <path class="st7" d="M31,41.34v-5.33c0-.74-.49-1.33-1.09-1.33h-9.82c-.6,0-1.09.6-1.09,1.33v5.33c0,.74-.49,1.33-1.09,1.33h-9.82c-.6,0-1.09-.6-1.09-1.33v-19.28c0-.45.19-.87.5-1.12L24.41,7.55c.36-.29.83-.29,1.19,0l16.91,13.4c.31.25.5.67.5,1.12v19.28c0,.74-.49,1.33-1.09,1.33h-9.82c-.6,0-1.09-.6-1.09-1.33Z"/>
      <path class="st1" d="M31,41.34v-5.33c0-.74-.49-1.33-1.09-1.33h-9.82c-.6,0-1.09.6-1.09,1.33v5.33c0,.74-.49,1.33-1.09,1.33h-9.82c-.6,0-1.09-.6-1.09-1.33v-19.28c0-.45.19-.87.5-1.12L24.41,7.55c.36-.29.83-.29,1.19,0l16.91,13.4c.31.25.5.67.5,1.12v19.28c0,.74-.49,1.33-1.09,1.33h-9.82c-.6,0-1.09-.6-1.09-1.33Z"/>
    </g>
  </g>
  <g id="Layer_11" class="st8">
    <g>
      <g>
        <g>
          <rect class="st7" x="17.82" y="26.63" width="2.67" height="2.67" rx=".6" ry=".6"/>
          <rect class="st7" x="11.97" y="26.63" width="2.67" height="2.67" rx=".6" ry=".6"/>
          <rect class="st7" x="23.67" y="26.63" width="2.67" height="2.67" rx=".6" ry=".6"/>
          <rect class="st7" x="29.51" y="26.63" width="2.67" height="2.67" rx=".6" ry=".6"/>
          <rect class="st7" x="35.36" y="26.63" width="2.67" height="2.67" rx=".6" ry=".6"/>
        </g>
        <g>
          <rect class="st7" x="17.82" y="32.29" width="2.67" height="2.67" rx=".6" ry=".6"/>
          <rect class="st7" x="11.97" y="32.29" width="2.67" height="2.67" rx=".6" ry=".6"/>
          <rect class="st7" x="23.67" y="32.29" width="2.67" height="2.67" rx=".6" ry=".6"/>
          <rect class="st7" x="29.51" y="32.29" width="2.67" height="2.67" rx=".6" ry=".6"/>
        </g>
      </g>
      <g>
        <rect class="st3" x="7.15" y="10.84" width="35.7" height="31.78" rx="4" ry="4"/>
        <line class="st3" x1="7.21" y1="19.82" x2="42.79" y2="19.82"/>
        <line class="st0" x1="16.5" y1="7.38" x2="16.5" y2="14.31"/>
        <line class="st0" x1="32.5" y1="7.38" x2="32.5" y2="14.31"/>
      </g>
    </g>
  </g>
  <g id="Layer_12" class="st8">
    <g>
      <g>
        <path class="st7" d="M17.5,7.57c0-.28-.22-.5-.5-.5s-.5.22-.5.5v3.58h1v-3.58Z"/>
        <path class="st7" d="M33.5,7.57c0-.28-.22-.5-.5-.5s-.5.22-.5.5v3.58h1v-3.58Z"/>
        <path class="st7" d="M38.85,11.15h-5.35v3.36c0,.28-.22.5-.5.5s-.5-.22-.5-.5v-3.36h-15v3.36c0,.28-.22.5-.5.5s-.5-.22-.5-.5v-3.36h-5.35c-2.21,0-4,1.79-4,4v4.48h35.7v-4.48c0-2.21-1.79-4-4-4Z"/>
        <path class="st7" d="M7.15,38.93c0,2.21,1.79,4,4,4h27.7c2.21,0,4-1.79,4-4v-18.31H7.15v18.31ZM35.36,26.62c0-.33.27-.6.6-.6h1.47c.33,0,.6.27.6.6v1.47c0,.33-.27.6-.6.6h-1.47c-.33,0-.6-.27-.6-.6v-1.47ZM29.51,26.62c0-.33.27-.6.6-.6h1.47c.33,0,.6.27.6.6v1.47c0,.33-.27.6-.6.6h-1.47c-.33,0-.6-.27-.6-.6v-1.47ZM29.51,32.29c0-.33.27-.6.6-.6h1.47c.33,0,.6.27.6.6v1.47c0,.33-.27.6-.6.6h-1.47c-.33,0-.6-.27-.6-.6v-1.47ZM23.67,26.62c0-.33.27-.6.6-.6h1.47c.33,0,.6.27.6.6v1.47c0,.33-.27.6-.6.6h-1.47c-.33,0-.6-.27-.6-.6v-1.47ZM23.67,32.29c0-.33.27-.6.6-.6h1.47c.33,0,.6.27.6.6v1.47c0,.33-.27.6-.6.6h-1.47c-.33,0-.6-.27-.6-.6v-1.47ZM17.82,26.62c0-.33.27-.6.6-.6h1.47c.33,0,.6.27.6.6v1.47c0,.33-.27.6-.6.6h-1.47c-.33,0-.6-.27-.6-.6v-1.47ZM17.82,32.29c0-.33.27-.6.6-.6h1.47c.33,0,.6.27.6.6v1.47c0,.33-.27.6-.6.6h-1.47c-.33,0-.6-.27-.6-.6v-1.47ZM11.97,26.62c0-.33.27-.6.6-.6h1.47c.33,0,.6.27.6.6v1.47c0,.33-.27.6-.6.6h-1.47c-.33,0-.6-.27-.6-.6v-1.47ZM11.97,32.29c0-.33.27-.6.6-.6h1.47c.33,0,.6.27.6.6v1.47c0,.33-.27.6-.6.6h-1.47c-.33,0-.6-.27-.6-.6v-1.47Z"/>
      </g>
      <rect class="st3" x="7.15" y="11.15" width="35.7" height="31.78" rx="4" ry="4"/>
    </g>
  </g>
  <g id="Layer_13" class="st8">
    <polyline class="st1" points="41 19.68 41 10.32 32 10.68 41 10.32 28.97 25.12 18 25.68 9 39.68"/>
  </g>
  <g id="Layer_14" class="st8">
    <g>
      <circle class="st1" cx="25" cy="25" r="17.96"/>
      <g>
        <circle class="st7" cx="25" cy="13.51" r="1.07"/>
        <line class="st1" x1="25" y1="17.54" x2="25" y2="37.55"/>
      </g>
    </g>
  </g>
  <g id="Layer_15" class="st8">
    <path class="st7" d="M25,7.04C15.08,7.04,7.04,15.08,7.04,25s8.04,17.96,17.96,17.96,17.96-8.04,17.96-17.96S34.92,7.04,25,7.04ZM25.5,37.55c0,.28-.22.5-.5.5s-.5-.22-.5-.5v-20.01c0-.28.22-.5.5-.5s.5.22.5.5v20.01ZM25,14.58c-.59,0-1.07-.48-1.07-1.07s.48-1.07,1.07-1.07,1.07.48,1.07,1.07-.48,1.07-1.07,1.07Z"/>
  </g>
  <g id="Layer_16" class="st8">
    <polyline class="st6" points="36 3 14 25 36 47"/>
  </g>
  <g id="Layer_17" class="st8">
    <polyline class="st6" points="14 3 36 25 14 47"/>
  </g>
</svg>