<?xml version="1.0" encoding="UTF-8"?>
<svg id="Layer_2" data-name="Layer 2" xmlns="http://www.w3.org/2000/svg" viewBox="0 0 43.51 43.51">
  <defs>
    <style>
      .cls-1 {
        fill: none;
        stroke: #001910;
        stroke-linecap: round;
        stroke-linejoin: round;
        stroke-width: 3px;
      }
    </style>
  </defs>
  <g id="Layer_3" data-name="Layer 3">
    <path class="cls-1" d="M18.01,32.99l7.49-7.49,7.49-7.49c2.1,2.1,5.54,2.07,7.6-.11,1.9-2.01,1.9-5.27,0-7.27-2.06-2.18-5.49-2.21-7.59-.11,2.1-2.1,2.07-5.54-.11-7.59-2.01-1.9-5.27-1.9-7.27,0-2.18,2.06-2.21,5.49-.11,7.6l-7.49,7.49-7.49,7.49c-2.1-2.1-5.54-2.07-7.6.11-1.9,2.01-1.9,5.27,0,7.27,2.06,2.18,5.49,2.21,7.59.11-2.1,2.1-2.07,5.54.11,7.59,2.01,1.9,5.27,1.9,7.27,0,2.18-2.06,2.21-5.49.11-7.6Z"/>
  </g>
</svg>