<?xml version="1.0" encoding="UTF-8"?>
<svg id="Layer_2" data-name="Layer 2" xmlns="http://www.w3.org/2000/svg" viewBox="0 0 44.82 45.28">
  <defs>
    <style>
      .cls-1 {
        fill: #001910;
      }
    </style>
  </defs>
  <g id="Layer_3" data-name="Layer 3">
    <path class="cls-1" d="M44.27.14c-2.56-.28-17.77-1.38-21.42,12.01-.13.47-.76.47-.88,0C18.31-1.23,3.1-.14.55.14c-.22.02-.39.21-.41.44C-.18,3.8-1.58,25.85,20.35,23.84c.27-.02.51.2.51.48v19.2c0,.83.54,1.62,1.32,1.74.95.14,1.77-.63,1.77-1.61v-19.33c0-.29.24-.51.51-.48C46.4,25.85,45,3.8,44.68.58c-.02-.23-.19-.41-.41-.44Z"/>
  </g>
</svg>