<?xml version="1.0" encoding="UTF-8"?>
<svg xmlns="http://www.w3.org/2000/svg" version="1.1" viewBox="0 0 30 30">
  <!-- Generator: Adobe Illustrator 29.8.6, SVG Export Plug-In . SVG Version: 2.1.1 Build 1)  -->
  <defs>
    <style>
      .st0, .st1, .st2, .st3, .st4, .st5 {
        fill: none;
      }

      .st0, .st1, .st2, .st5 {
        stroke-linecap: round;
      }

      .st0, .st1, .st3, .st4 {
        stroke-miterlimit: 10;
      }

      .st0, .st2, .st4, .st5 {
        stroke: #001910;
      }

      .st1, .st3 {
        stroke: #000;
      }

      .st1, .st3, .st5 {
        stroke-width: 2px;
      }

      .st2, .st5 {
        stroke-linejoin: round;
      }

      .st6 {
        display: none;
      }

      .st7 {
        fill: #001910;
      }
    </style>
  </defs>
  <g id="Layer_1" class="st6">
    <polyline class="st5" points="21 3 9 15 21 27"/>
  </g>
  <g id="Layer_2" class="st6">
    <polyline class="st5" points="9 3 21 15 9 27"/>
  </g>
  <g id="Layer_3" class="st6">
    <g>
      <circle class="st7" cx="15" cy="6.56" r="3.56"/>
      <path class="st7" d="M21.67,20.13c0-4.55-2.98-8.24-6.67-8.24s-6.67,3.69-6.67,8.24v6.1c0,.42.34.77.77.77h11.79c.42,0,.77-.34.77-.77v-6.1Z"/>
      <circle class="st4" cx="15" cy="6.56" r="3.56"/>
      <path class="st4" d="M21.67,20.13c0-4.55-2.98-8.24-6.67-8.24s-6.67,3.69-6.67,8.24v6.1c0,.42.34.77.77.77h11.79c.42,0,.77-.34.77-.77v-6.1Z"/>
    </g>
  </g>
  <g id="Layer_4" class="st6">
    <g>
      <circle class="st4" cx="15" cy="6.56" r="3.56"/>
      <path class="st4" d="M21.67,20.13c0-4.55-2.98-8.24-6.67-8.24s-6.67,3.69-6.67,8.24v6.1c0,.42.34.77.77.77h11.79c.42,0,.77-.34.77-.77v-6.1Z"/>
    </g>
  </g>
  <g id="Layer_5" class="st6">
    <g>
      <rect class="st4" x="6.29" y="3" width="17.42" height="24" rx="2" ry="2"/>
      <line class="st0" x1="9.08" y1="8.92" x2="20.92" y2="8.92"/>
      <line class="st0" x1="9.08" y1="14.84" x2="20.92" y2="14.84"/>
      <line class="st0" x1="9.08" y1="20.75" x2="15" y2="20.75"/>
    </g>
  </g>
  <g id="Layer_6" class="st6">
    <g>
      <path class="st7" d="M22.62,3H7.38c-.6,0-1.09.49-1.09,1.09v21.82c0,.6.49,1.09,1.09,1.09h15.24c.6,0,1.09-.49,1.09-1.09V4.09c0-.6-.49-1.09-1.09-1.09ZM15,21.3h-5.92c-.3,0-.55-.24-.55-.55s.24-.55.55-.55h5.92c.3,0,.55.24.55.55s-.24.55-.55.55ZM20.92,15.38h-11.84c-.3,0-.55-.24-.55-.55s.24-.55.55-.55h11.84c.3,0,.55.24.55.55s-.24.55-.55.55ZM20.92,9.46h-11.84c-.3,0-.55-.24-.55-.55s.24-.55.55-.55h11.84c.3,0,.55.24.55.55s-.24.55-.55.55Z"/>
      <rect class="st4" x="6.29" y="3" width="17.42" height="24" rx="2" ry="2"/>
    </g>
  </g>
  <g id="Layer_7" class="st6">
    <g>
      <circle class="st2" cx="15" cy="15" r="3.37"/>
      <line class="st2" x1="15" y1="3" x2="15" y2="7.88"/>
      <line class="st2" x1="6.51" y1="6.51" x2="9.96" y2="9.96"/>
      <line class="st2" x1="3" y1="15" x2="7.88" y2="15"/>
      <line class="st2" x1="6.51" y1="23.49" x2="9.96" y2="20.04"/>
      <line class="st2" x1="15" y1="27" x2="15" y2="22.12"/>
      <line class="st2" x1="23.49" y1="23.49" x2="20.04" y2="20.04"/>
      <line class="st2" x1="27" y1="15" x2="22.12" y2="15"/>
      <line class="st2" x1="23.49" y1="6.51" x2="20.04" y2="9.96"/>
    </g>
  </g>
  <g id="Layer_8" class="st6">
    <g>
      <g>
        <line class="st2" x1="15" y1="3" x2="15" y2="7.88"/>
        <line class="st2" x1="6.51" y1="6.51" x2="9.96" y2="9.96"/>
        <line class="st2" x1="3" y1="15" x2="7.88" y2="15"/>
        <line class="st2" x1="6.51" y1="23.49" x2="9.96" y2="20.04"/>
        <line class="st2" x1="15" y1="27" x2="15" y2="22.12"/>
        <line class="st2" x1="23.49" y1="23.49" x2="20.04" y2="20.04"/>
        <line class="st2" x1="27" y1="15" x2="22.12" y2="15"/>
        <line class="st2" x1="23.49" y1="6.51" x2="20.04" y2="9.96"/>
      </g>
      <g>
        <circle class="st7" cx="15" cy="15" r="3.37"/>
        <circle class="st2" cx="15" cy="15" r="3.37"/>
      </g>
    </g>
  </g>
  <g id="Layer_11">
    <circle class="st3" cx="14.68" cy="6.68" r="3.56"/>
    <path class="st3" d="M21.34,20.26c0-4.55-2.98-8.24-6.67-8.24s-6.67,3.69-6.67,8.24v6.1c0,.42.34.77.77.77h11.79c.42,0,.77-.34.77-.77v-6.1Z"/>
  </g>
  <g id="Layer_10" class="st6">
    <circle cx="15.28" cy="6.31" r="3.56"/>
    <path d="M21.94,19.88c0-4.55-2.98-8.24-6.67-8.24s-6.67,3.69-6.67,8.24v6.1c0,.42.34.77.77.77h11.79c.42,0,.77-.34.77-.77v-6.1Z"/>
    <circle class="st3" cx="15.28" cy="6.31" r="3.56"/>
    <path class="st3" d="M21.94,19.88c0-4.55-2.98-8.24-6.67-8.24s-6.67,3.69-6.67,8.24v6.1c0,.42.34.77.77.77h11.79c.42,0,.77-.34.77-.77v-6.1Z"/>
  </g>
  <g id="Layer_12" class="st6">
    <rect class="st3" x="6.64" y="2.82" width="17.42" height="24" rx="2" ry="2"/>
    <line class="st1" x1="9.43" y1="8.74" x2="21.27" y2="8.74"/>
    <line class="st1" x1="9.43" y1="14.66" x2="21.27" y2="14.66"/>
    <line class="st1" x1="9.43" y1="20.58" x2="15.35" y2="20.58"/>
  </g>
  <g id="Layer_13" class="st6">
    <rect class="st3" x="6.56" y="3.05" width="17.42" height="24" rx="2" ry="2"/>
    <path d="M21.99,3.05h-13.42c-1.1,0-2,.9-2,2v20c0,1.1.9,2,2,2h13.42c1.1,0,2-.9,2-2V5.05c0-1.1-.9-2-2-2ZM15.27,21.97h-5.92c-.55,0-1-.45-1-1s.45-1,1-1h5.92c.55,0,1,.45,1,1s-.45,1-1,1ZM21.19,16.05h-11.84c-.55,0-1-.45-1-1s.45-1,1-1h11.84c.55,0,1,.45,1,1s-.45,1-1,1ZM21.19,10.13h-11.84c-.55,0-1-.45-1-1s.45-1,1-1h11.84c.55,0,1,.45,1,1s-.45,1-1,1Z"/>
  </g>
</svg>