<?xml version="1.0" encoding="UTF-8"?>
<svg id="Layer_2" data-name="Layer 2" xmlns="http://www.w3.org/2000/svg" viewBox="0 0 19.42 26">
  <defs>
    <style>
      .cls-1 {
        fill: #001910;
      }

      .cls-2 {
        fill: none;
        stroke: #001910;
        stroke-miterlimit: 10;
        stroke-width: 2px;
      }
    </style>
  </defs>
  <g id="Layer_3" data-name="Layer 3">
    <rect class="cls-2" x="1" y="1" width="17.42" height="24" rx="2" ry="2"/>
    <path class="cls-1" d="M17.33,1H2.09c-.6,0-1.09.49-1.09,1.09v21.82c0,.6.49,1.09,1.09,1.09h15.24c.6,0,1.09-.49,1.09-1.09V2.09c0-.6-.49-1.09-1.09-1.09ZM9.71,19.57H3.79c-.45,0-.82-.37-.82-.82s.37-.82.82-.82h5.92c.45,0,.82.37.82.82s-.37.82-.82.82ZM15.63,13.65H3.79c-.45,0-.82-.37-.82-.82s.37-.82.82-.82h11.84c.45,0,.82.37.82.82s-.37.82-.82.82ZM15.63,7.74H3.79c-.45,0-.82-.37-.82-.82s.37-.82.82-.82h11.84c.45,0,.82.37.82.82s-.37.82-.82.82Z"/>
  </g>
</svg>